/* XPM */
static char * vislabico_xpm[] = {
"32 32 154 2",
"  	c None",
". 	c #010002",
"+ 	c #010007",
"@ 	c #010008",
"# 	c #020006",
"$ 	c #010009",
"% 	c #01000C",
"& 	c #040100",
"* 	c #01000E",
"= 	c #01000F",
"- 	c #010010",
"; 	c #010012",
"> 	c #040200",
", 	c #010013",
"' 	c #020011",
") 	c #010014",
"! 	c #050200",
"~ 	c #010016",
"{ 	c #020015",
"] 	c #00001C",
"^ 	c #020017",
"/ 	c #020018",
"( 	c #030016",
"_ 	c #020019",
": 	c #01001C",
"< 	c #02001A",
"[ 	c #02001B",
"} 	c #020020",
"| 	c #060500",
"1 	c #020027",
"2 	c #02002D",
"3 	c #02002E",
"4 	c #020033",
"5 	c #090800",
"6 	c #020040",
"7 	c #0B0900",
"8 	c #02004C",
"9 	c #010054",
"0 	c #020058",
"a 	c #0D0B00",
"b 	c #030058",
"c 	c #0D0C00",
"d 	c #010062",
"e 	c #030067",
"f 	c #03006C",
"g 	c #020071",
"h 	c #03006F",
"i 	c #030079",
"j 	c #120F00",
"k 	c #010083",
"l 	c #03007E",
"m 	c #121000",
"n 	c #01008D",
"o 	c #131200",
"p 	c #03008E",
"q 	c #020091",
"r 	c #020099",
"s 	c #02009F",
"t 	c #0200A3",
"u 	c #0300A4",
"v 	c #171500",
"w 	c #0200AE",
"x 	c #0200B1",
"y 	c #0200B4",
"z 	c #0200B7",
"A 	c #181700",
"B 	c #0200BF",
"C 	c #0200C2",
"D 	c #0200C7",
"E 	c #1A1900",
"F 	c #0200C9",
"G 	c #0200CB",
"H 	c #1A1A00",
"I 	c #0200CE",
"J 	c #0200CF",
"K 	c #0200D0",
"L 	c #0200D1",
"M 	c #0300D1",
"N 	c #0300D2",
"O 	c #232200",
"P 	c #252400",
"Q 	c #282700",
"R 	c #2B2A00",
"S 	c #2C2C00",
"T 	c #2D2C00",
"U 	c #333200",
"V 	c #363600",
"W 	c #393800",
"X 	c #393900",
"Y 	c #3A3900",
"Z 	c #3B3A00",
"` 	c #454500",
" .	c #464500",
"..	c #464600",
"+.	c #4F4E00",
"@.	c #525200",
"#.	c #565500",
"$.	c #585700",
"%.	c #5A5A00",
"&.	c #5B5A00",
"*.	c #5C5C00",
"=.	c #686700",
"-.	c #686800",
";.	c #6B6B00",
">.	c #6C6B00",
",.	c #6E6E00",
"'.	c #777700",
").	c #797900",
"!.	c #7B7B00",
"~.	c #7C7C00",
"{.	c #808000",
"].	c #858500",
"^.	c #888800",
"/.	c #929300",
"(.	c #979700",
"_.	c #9D9D00",
":.	c #A0A100",
"<.	c #A1A100",
"[.	c #A1A200",
"}.	c #A2A300",
"|.	c #A8A900",
"1.	c #AAAB00",
"2.	c #ABAC00",
"3.	c #ACAD00",
"4.	c #ADAE00",
"5.	c #AEAF00",
"6.	c #AFB000",
"7.	c #B4B500",
"8.	c #B5B600",
"9.	c #B9BA00",
"0.	c #BDBE00",
"a.	c #C1C300",
"b.	c #C6C700",
"c.	c #CBCC00",
"d.	c #CCCE00",
"e.	c #D1D200",
"f.	c #D8DA00",
"g.	c #E2E400",
"h.	c #E3E400",
"i.	c #E8EA00",
"j.	c #ECEE00",
"k.	c #EDF000",
"l.	c #F1F200",
"m.	c #F1F300",
"n.	c #F2F400",
"o.	c #F4F600",
"p.	c #F5F700",
"q.	c #F6F800",
"r.	c #F7F900",
"s.	c #F8FA00",
"t.	c #F9FB00",
"u.	c #FAFC00",
"v.	c #FBFD00",
"w.	c #FCFE00",
"                                                                ",
"                                                                ",
"                                                                ",
"                                                                ",
"                                                                ",
"                                                                ",
"                                                                ",
"                                                                ",
"                                      _ ,                       ",
"                    , a  .>.#.O + 2 d r g -                     ",
"              / E ~.1./.+.= b p B N L N x Y ^.P {               ",
"          < Q 4.i.v 8 k z K N N N N N N J $ t.v.9.V (           ",
"        ! /.t.w.w.o G L N N N N N N N N N 9 c.w.w.v.[.7         ",
"      R f.w.w.w.w.=.t N N N N N N N N N N n ].w.w.w.w.h.Z       ",
"    ..l.w.w.w.w.w.5.f N N N N N N N N N N B X w.w.w.w.w.r.&.<   ",
"  ` p.w.w.w.w.w.w.k.3 N N N N N N N N N N L 1 m.w.w.w.w.w.u.*.} ",
", |.w.w.w.w.w.w.w.w.U C N N N N N N N N N N e 7.w.w.w.w.w.w.a.- ",
"  . 9.w.w.w.w.w.w.w.{.q N N N N N N N N N N s ,.w.w.w.w.w.d.c   ",
"    # }.w.w.w.w.w.w.b.0 N N N N N N N N N N F E w.w.w.w.8.|     ",
"      ; -.n.w.w.w.w.s.' M N N N N N N N N D r : g.w.r.!.%       ",
"          H 3.v.w.w.w.+.y N N N N G u h 4 S ).0.r.9.Q ]         ",
"            ^ T <.n.w.(.l I w i 6 A ;.6.j.w.q.2.W )             ",
"                < & @.'.[ @ $.:.g.v.o.e._.%.5 ^                 ",
"                        ~ * > j m | % ,                         ",
"                                                                ",
"                                                                ",
"                                                                ",
"                                                                ",
"                                                                ",
"                                                                ",
"                                                                ",
"                                                                "};
